<?xml version="1.0" encoding="UTF-8"?>
<svg width="24px" height="24px" viewBox="0 0 24 24" version="1.1" xmlns="http://www.w3.org/2000/svg" xmlns:xlink="http://www.w3.org/1999/xlink">
    <title>user-circle-fill</title>
    <g id="Symbols" stroke="none" stroke-width="1" fill="none" fill-rule="evenodd">
        <g id="circle-10" transform="translate(2.000000, 2.000000)">
            <rect id="Rectangle" x="0" y="0" width="20" height="20"></rect>
            <g id="Group" stroke-linecap="round" stroke-linejoin="round" transform="translate(0.833333, 0.833333)">
                <path d="M15,16.2383333 L15,15.6175 C15,14.72 14.5191667,13.8916667 13.74,13.4466667 L11.0575,11.9116667" id="Path" stroke="#FFFFFF" stroke-width="1.2"></path>
                <path d="M7.2725,11.91 L4.59333333,13.4466667 C3.81416667,13.8916667 3.33333333,14.72 3.33333333,15.6175 L3.33333333,16.2383333" id="Path" stroke="#FFFFFF" stroke-width="1.2"></path>
                <path d="M9.16666667,12.5 L9.16666667,12.5 C7.32583333,12.5 5.83333333,11.0075 5.83333333,9.16666667 L5.83333333,7.5 C5.83333333,5.65916667 7.32583333,4.16666667 9.16666667,4.16666667 L9.16666667,4.16666667 C11.0075,4.16666667 12.5,5.65916667 12.5,7.5 L12.5,9.16666667 C12.5,11.0075 11.0075,12.5 9.16666667,12.5 Z" id="Path" stroke="#FFFFFF" stroke-width="1.2" fill="#000000"></path>
                <circle id="Oval" stroke="#FFFFFF" stroke-width="1.2" cx="9.16666667" cy="9.16666667" r="9.16666667"></circle>
                <polygon id="Path-2" fill="#FFFFFF" points="3.33333333 16.2383333 6.85845657 18.3333333 11.0575 18.3333333 15 16.2383333 15 14.5962408 13.02875 13.1836083 10.6540411 11.91 7.2725 11.9116667 5.83333333 12.5 3.98445929 14.0741667"></polygon>
            </g>
        </g>
    </g>
</svg>
